<svg width="61" height="61" viewBox="0 0 61 61" fill="none" xmlns="http://www.w3.org/2000/svg">
<path d="M51.8386 51.6695H42.9489V37.7199C42.9489 34.3935 42.8794 30.1187 38.3003 30.1187C33.6648 30.1187 32.9586 33.7268 32.9586 37.4738V51.6676H24.0576V22.9852H32.6073V26.8975H32.7219C33.9165 24.638 36.8221 22.262 41.1571 22.262C50.1744 22.262 51.848 28.1991 51.848 35.9187V51.6676L51.8386 51.6695ZM14.0016 19.0653C11.1335 19.0653 8.83455 16.7457 8.83455 13.8889C8.83455 11.0415 11.1429 8.72561 14.0016 8.72561C16.8602 8.72561 19.1761 11.0415 19.1761 13.8889C19.1761 16.7457 16.8602 19.0653 14.0016 19.0653ZM18.4605 51.6695H9.54076V22.987H18.4605V51.6695ZM56.3012 0.448242H5.07057C2.62323 0.448242 0.637939 2.3847 0.637939 4.78132V56.2205C0.637939 58.6171 2.62323 60.5536 5.07057 60.5536H56.2919C58.7354 60.5536 60.7414 58.6171 60.7414 56.2205V4.78132C60.7414 2.3847 58.7354 0.448242 56.2919 0.448242L56.3012 0.448242Z" fill="#DBDF7D"/>
</svg>
