<svg width="71" height="57" viewBox="0 0 71 57" fill="none" xmlns="http://www.w3.org/2000/svg">
<path d="M59.7082 0.833008H11.2915C8.53988 0.833008 5.90096 1.92609 3.95527 3.87178C2.00958 5.81747 0.916504 8.45639 0.916504 11.208V45.7913C0.916504 48.543 2.00958 51.1819 3.95527 53.1276C5.90096 55.0733 8.53988 56.1663 11.2915 56.1663H59.7082C62.4598 56.1663 65.0987 55.0733 67.0444 53.1276C68.9901 51.1819 70.0832 48.543 70.0832 45.7913V11.208C70.0832 8.45639 68.9901 5.81747 67.0444 3.87178C65.0987 1.92609 62.4598 0.833008 59.7082 0.833008ZM57.3911 7.74967L35.4998 24.1768L13.6086 7.74967H57.3911ZM59.7082 49.2497H11.2915C10.3743 49.2497 9.49466 48.8853 8.84609 48.2368C8.19753 47.5882 7.83317 46.7085 7.83317 45.7913V12.0726L33.4248 31.2663C34.0235 31.7153 34.7516 31.958 35.4998 31.958C36.2481 31.958 36.9762 31.7153 37.5748 31.2663L63.1665 12.0726V45.7913C63.1665 46.7085 62.8021 47.5882 62.1536 48.2368C61.505 48.8853 60.6254 49.2497 59.7082 49.2497Z" fill="#DBDF7D"/>
</svg>
