<svg width="66" height="65" viewBox="0 0 66 65" fill="none" xmlns="http://www.w3.org/2000/svg">
<path d="M32.8189 0.0175781C24.0659 0.0175781 22.975 0.0598437 19.5495 0.204754C16.1099 0.373816 13.7833 0.907167 11.7304 1.70417C9.6131 2.53338 7.80977 3.6343 6.02858 5.42555C4.23531 7.20674 3.12433 9.01007 2.3072 11.1274C1.51019 13.1803 0.976843 15.5069 0.807781 18.9465C0.652808 22.374 0.620605 23.4629 0.620605 32.2159C0.620605 40.9688 0.662871 42.0597 0.807781 45.4852C0.976843 48.9148 1.51019 51.2514 2.3072 53.3043C3.13641 55.4216 4.23733 57.225 6.02858 59.0062C7.80977 60.7994 9.6131 61.9104 11.7304 62.7275C13.7833 63.5145 16.12 64.0579 19.5495 64.227C22.9771 64.3819 24.0659 64.4141 32.8189 64.4141C41.5719 64.4141 42.6627 64.3719 46.0882 64.227C49.5178 64.0579 51.8545 63.5125 53.9074 62.7275C56.0247 61.8983 57.828 60.7974 59.6092 59.0062C61.4025 57.225 62.5134 55.4317 63.3306 53.3043C64.1175 51.2514 64.6609 48.9148 64.83 45.4852C64.985 42.0577 65.0172 40.9688 65.0172 32.2159C65.0172 23.4629 64.9749 22.372 64.83 18.9465C64.6609 15.5169 64.1155 13.1682 63.3306 11.1274C62.5014 9.01007 61.4004 7.20674 59.6092 5.42555C57.828 3.63229 56.0347 2.52131 53.9074 1.70417C51.8545 0.907167 49.5178 0.373816 46.0882 0.204754C42.6607 0.0497804 41.5719 0.0175781 32.8189 0.0175781V0.0175781ZM32.8189 5.81399C41.4149 5.81399 42.4413 5.85626 45.8387 6.00117C48.9724 6.14809 50.6791 6.67138 51.8122 7.11416C53.3237 7.69984 54.3803 8.39219 55.5235 9.5233C56.6446 10.6443 57.3369 11.7131 57.9226 13.2245C58.3654 14.3577 58.8887 16.0644 59.0356 19.1981C59.1805 22.5954 59.2228 23.6239 59.2228 32.2179C59.2228 40.8119 59.1805 41.8403 59.0235 45.2377C58.8544 48.3714 58.3312 50.0781 57.8904 51.2112C57.2806 52.7227 56.6003 53.7793 55.4772 54.9225C54.3441 56.0436 53.2653 56.7359 51.7659 57.3216C50.6469 57.7644 48.916 58.2876 45.7702 58.4346C42.3548 58.5795 41.3485 58.6217 32.7303 58.6217C24.1122 58.6217 23.1079 58.5795 19.6884 58.4225C16.5547 58.2534 14.8258 57.7301 13.6927 57.2894C12.1631 56.6795 11.1145 55.9993 9.99148 54.8762C8.85836 53.7431 8.13783 52.6643 7.58234 51.1649C7.13151 50.0459 6.61627 48.315 6.44922 45.1692C6.3345 41.794 6.28016 40.7475 6.28016 32.1696C6.28016 23.5957 6.3345 22.5471 6.44922 19.1296C6.61627 15.9839 7.13151 14.257 7.58234 13.134C8.13783 11.6024 8.86037 10.5558 9.99148 9.42266C11.1125 8.30162 12.1631 7.57707 13.6927 7.0095C14.8258 6.56873 16.5124 6.04545 19.6582 5.88846C23.0737 5.76569 24.08 5.72141 32.6861 5.72141L32.8189 5.81399ZM32.8189 15.69C23.6795 15.69 16.289 23.0905 16.289 32.2199C16.289 41.3593 23.6895 48.7497 32.8189 48.7497C41.9583 48.7497 49.3487 41.3492 49.3487 32.2199C49.3487 23.0805 41.9482 15.69 32.8189 15.69ZM32.8189 42.9533C26.8856 42.9533 22.0855 38.1532 22.0855 32.2199C22.0855 26.2866 26.8856 21.4865 32.8189 21.4865C38.7522 21.4865 43.5523 26.2866 43.5523 32.2199C43.5523 38.1532 38.7522 42.9533 32.8189 42.9533ZM53.8792 15.0299C53.8792 17.1693 52.1383 18.8962 50.0089 18.8962C47.8694 18.8962 46.1426 17.1673 46.1426 15.0299C46.1426 12.9025 47.8815 11.1717 50.0089 11.1717C52.1362 11.1717 53.8792 12.9025 53.8792 15.0299Z" fill="#DBDF7D"/>
</svg>
